<svg width="300" height="93" id="Layer_1" data-name="Layer 1" xmlns="http://www.w3.org/2000/svg" viewBox="0 0 776.21 240.06"><defs><style>.cls-1{fill:#06c3c3;}.cls-2{fill:#fff;fill-rule:evenodd;}</style></defs><title>emilgroup new logo</title><path class="cls-1" d="M463.06,123.05h25.77v30.6A37.91,37.91,0,0,1,477,159.57a46.6,46.6,0,0,1-13.16,1.84,45.34,45.34,0,0,1-16.3-2.8A37.64,37.64,0,0,1,435,150.84a34.06,34.06,0,0,1-8.06-11.74,37.94,37.94,0,0,1-2.84-14.75,40.14,40.14,0,0,1,2.69-14.9,33.53,33.53,0,0,1,7.68-11.72,35,35,0,0,1,12.1-7.67,43.76,43.76,0,0,1,15.84-2.73,46.81,46.81,0,0,1,8.51.74,42.17,42.17,0,0,1,7.34,2,34.66,34.66,0,0,1,6.15,3.09,33.53,33.53,0,0,1,5,3.88l-4.88,7.42a4.65,4.65,0,0,1-2.95,2.13,5.21,5.21,0,0,1-3.91-.89c-1.33-.8-2.58-1.49-3.76-2.07a22.57,22.57,0,0,0-7.49-2.21,39.2,39.2,0,0,0-4.57-.25,20.91,20.91,0,0,0-8.51,1.67,18.35,18.35,0,0,0-6.45,4.7,21.24,21.24,0,0,0-4.1,7.29,29.48,29.48,0,0,0-1.44,9.48,30.56,30.56,0,0,0,1.59,10.25,21.24,21.24,0,0,0,4.5,7.56,19.06,19.06,0,0,0,7,4.7,24,24,0,0,0,9,1.62,23.35,23.35,0,0,0,5.5-.6,31.39,31.39,0,0,0,4.8-1.59v-11h-7.16a3.52,3.52,0,0,1-2.5-.84,2.85,2.85,0,0,1-.89-2.14Z"/><path class="cls-1" d="M559.44,160.62H544.22c-2.83,0-4.85-1.06-6.08-3.18l-12-21.05a5.79,5.79,0,0,0-1.89-2,5.91,5.91,0,0,0-3-.62H517v26.82H500.13V88.12h23.58a48.33,48.33,0,0,1,13.41,1.62,25.29,25.29,0,0,1,9.06,4.5,17.07,17.07,0,0,1,5.1,6.82,22.6,22.6,0,0,1,1.59,8.56,23.37,23.37,0,0,1-.94,6.67,20.39,20.39,0,0,1-2.79,5.79,21.32,21.32,0,0,1-4.55,4.76,24.52,24.52,0,0,1-6.25,3.43,15.67,15.67,0,0,1,3.09,2.11,14.88,14.88,0,0,1,2.58,3Zm-35.73-38.41a17.34,17.34,0,0,0,5.85-.87,10.57,10.57,0,0,0,4-2.42,9.18,9.18,0,0,0,2.23-3.6,13.72,13.72,0,0,0,.7-4.46,9.35,9.35,0,0,0-3.11-7.46q-3.11-2.69-9.63-2.69H517v21.5Z"/><path class="cls-1" d="M635.42,124.35A39,39,0,0,1,632.71,139a34.61,34.61,0,0,1-19.51,19.6,43.37,43.37,0,0,1-30.82,0A34.62,34.62,0,0,1,562.8,139a40.85,40.85,0,0,1,0-29.26A34.86,34.86,0,0,1,570.46,98a35.49,35.49,0,0,1,11.92-7.82,40.52,40.52,0,0,1,15.42-2.83,40,40,0,0,1,15.4,2.86A35.57,35.57,0,0,1,625.07,98a35,35,0,0,1,7.64,11.74A38.78,38.78,0,0,1,635.42,124.35Zm-17.22,0a31.34,31.34,0,0,0-1.39-9.68,20.54,20.54,0,0,0-4-7.29,17.25,17.25,0,0,0-6.39-4.58,22,22,0,0,0-8.61-1.59,22.35,22.35,0,0,0-8.68,1.59,17.2,17.2,0,0,0-6.42,4.58,20.37,20.37,0,0,0-4,7.29,34.34,34.34,0,0,0,0,19.41,20.41,20.41,0,0,0,4,7.28,16.93,16.93,0,0,0,6.42,4.56,22.73,22.73,0,0,0,8.68,1.56,22.4,22.4,0,0,0,8.61-1.56,17,17,0,0,0,6.39-4.56,20.58,20.58,0,0,0,4-7.28A31.53,31.53,0,0,0,618.2,124.35Z"/><path class="cls-1" d="M675.57,147.34a15.61,15.61,0,0,0,6-1.12,12.27,12.27,0,0,0,4.5-3.22,14.18,14.18,0,0,0,2.81-5.09,22.22,22.22,0,0,0,1-6.85V88.12h16.82v42.94a33.65,33.65,0,0,1-2.16,12.25,27.59,27.59,0,0,1-6.2,9.6,27.87,27.87,0,0,1-9.8,6.27,39.09,39.09,0,0,1-26,0,28,28,0,0,1-9.8-6.27,27.38,27.38,0,0,1-6.17-9.6,34.07,34.07,0,0,1-2.14-12.25V88.12h16.82V131a22.53,22.53,0,0,0,1,6.85A14.64,14.64,0,0,0,665,143a12.16,12.16,0,0,0,4.51,3.24A15.56,15.56,0,0,0,675.57,147.34Z"/><path class="cls-1" d="M745.43,88.12a42.2,42.2,0,0,1,13.16,1.82,25.34,25.34,0,0,1,9.06,5,19.51,19.51,0,0,1,5.25,7.52,25.59,25.59,0,0,1,1.69,9.35,27.54,27.54,0,0,1-1.74,10,20.07,20.07,0,0,1-5.33,7.76,25,25,0,0,1-9.08,5,41.6,41.6,0,0,1-13,1.82h-8.76v24.23H719.85V88.12Zm0,35.58q6.57,0,9.45-3.13t2.89-8.76a13.29,13.29,0,0,0-.74-4.53,9.3,9.3,0,0,0-2.27-3.51,10.27,10.27,0,0,0-3.83-2.26,17,17,0,0,0-5.5-.8h-8.76v23Z"/><rect class="cls-1" x="0.34" y="0.46" width="376.29" height="239.46"/><g id="Logo_green" data-name="Logo green"><g id="Emil_logo_desktop" data-name="Emil logo desktop"><path id="Fill-1-Copy-11" class="cls-2" d="M276,86.29c-5.35,6.12-13.73,7.22-18.73,2.47s-4.72-13.57.62-19.68,13.73-7.22,18.73-2.47S281.35,80.18,276,86.29ZM290,154.86a26.34,26.34,0,0,1,0,4.26v.09c0,8.08-6.41,14.73-14.12,14.73s-11.46-2.71-13.95-7c-2.39-4.14-2.6-9.25-2.6-13.91,0,0,.69-21.39.69-21.39,0-2.65,0-5,0-7.19v-.06c0-.27,0-.53,0-.8-.3-5.83-3.88-7-5.61-7.16a.74.74,0,0,1-.6-1c2.81-7.7,10.44-16.07,18.83-14.78,5.31.81,7.24,4.13,8.07,10.56.54,4.2.62,18.46.62,22.67,0,4.37-.34,8.33.6,12.72.86,4,3.54,7,7.29,7.39A.93.93,0,0,1,290,154.86Zm43.61,0a25.86,25.86,0,0,1,0,4.22s0,.06,0,.09c0,8.08-6.42,14.73-14.12,14.73-7.87,0-11.47-2.71-13.95-7-2.39-4.14-2.6-9.25-2.6-13.91,0,0,.68-21.39.68-21.39,0-2.65,0-52.91,0-55,0,0,0,0,0-.06,0-.27,0-.53,0-.8-.29-5.76-3.79-6.93-5.54-7.15a.82.82,0,0,1-.62-1.12c2.84-7.67,10.44-16,18.78-14.66,5.31.81,7.24,4.13,8.07,10.56.55,4.2.62,66.32.62,70.53,0,4.37-.34,8.33.61,12.72.85,4,3.51,6.94,7.24,7.38A1,1,0,0,1,333.57,154.9Zm-87.33-.45a25.71,25.71,0,0,1,0,4.3v.08c0,8.08-5.25,15-12.95,15-5.87.05-9.78-2.54-12.26-6.84-2.39-4.14-2.6-9.24-2.6-13.9l.05-21.52a10.07,10.07,0,0,0-10.82-10.24c-4.6.45-8.17,4.45-8.81,9.13-.86,6.29-.19,13.28.33,19.58.58,7,3.06,16.64-2.62,21.32-5.14,4.23-13.2,2.26-18.84.48a.84.84,0,0,1-.55-.91,193.27,193.27,0,0,0,1.49-32.53c-.18-4.47-.75-9.18-3.32-12.92a9.39,9.39,0,0,0-8.78-4.15c-5.1.53-8.88,5.22-8.88,10.57l-.08,32c0,11.9-12.42,10.41-18.46,9-1.2-.31-2.39-.73-3.57-1.11a.78.78,0,0,1-.51-.85c1-7.08,2.2-12.84,2.6-19.65.67-11.52,1.31-28.12-12.14-31.87a.9.9,0,0,1-.6-1.09c1.3-4.83,3.86-9.49,7.56-12.41,5.78-4.56,12.29-5.83,16.22,1.84a1.1,1.1,0,0,0,1.61.45l1.84-1.2c7-4.68,20.44-11.14,33.41-2.42a19.4,19.4,0,0,1,3.51,3.15,1.76,1.76,0,0,0,2.3.29l2-1.33c7-4.68,21.55-10.87,34.28-1.76,9.35,6.66,10,20.07,9.87,30.74a46.29,46.29,0,0,0,.59,10.52c.86,4,3.55,7,7.32,7.4A.88.88,0,0,1,246.24,154.45Zm-150-78.57h0ZM81.6,56.68c15.16-4.72,36.09-8,47.64,6.47,4.57,5.72,5.46,14.81,1.14,21-3.73,5.32-10.47,7-16.32,8a1,1,0,0,1-1.19-1.17c.76-6.76-3.85-11.64-9.62-13.74a21.28,21.28,0,0,0-6.78-1.29H96a42.73,42.73,0,0,0-10.78,1.38,110.44,110.44,0,0,0-14.91,4.86c-.45.17-.2.36,0,.61a7.93,7.93,0,0,1,1.76,4.58c.37,3.35.47,10.19.51,14.2,0,2.6,0,3.6,0,6.25,4.18-1.74,8.55-4,13.14-3.87,5.91.15,10,4.58,9.39,10.92a29.54,29.54,0,0,1-4.16,12,.9.9,0,0,1-1.27.28c-2.89-1.31-8.34-2.4-17.59.48q0,.54,0,1c-.17,8.78-1.81,19.37,7.31,23.56,10.35,4.76,27.09-2.45,27.74-14.8a1,1,0,0,1,1-.94c6.63.55,11.58,4.28,13.19,11.36a19.42,19.42,0,0,1-4.78,17.13c-4.79,5-11.84,7-18.28,8.1-16.51,2.73-38.66.1-45.63-18.39-3.53-9.37-2.32-19.88-1.71-29.78.69-11.39,2.15-23.16.85-34.54-.55-3.43-2.27-3-2.26-3a12.19,12.19,0,0,1-5-.55,8.4,8.4,0,0,1-5.25-4.19c-2.66-5.42.26-12,2.08-17.11a.57.57,0,0,1,.77-.35c2.55,1.16,4.07,3.8,18.26-.88C67.52,61.89,74.44,58.91,81.6,56.68Z"/></g></g></svg>